<?xml version="1.0" standalone="no"?>
<!DOCTYPE svg PUBLIC "-//W3C//DTD SVG 1.1//EN" "http://www.w3.org/Graphics/SVG/1.1/DTD/svg11.dtd" >
<svg xmlns="http://www.w3.org/2000/svg" xmlns:xlink="http://www.w3.org/1999/xlink" version="1.1">
<metadata></metadata>
<defs>
<font id="aurebesh_condensedregular" horiz-adv-x="1650" >
<font-face units-per-em="2048" ascent="1638" descent="-410" />
<missing-glyph horiz-adv-x="1187" />
<glyph unicode="&#xd;" horiz-adv-x="508" />
<glyph horiz-adv-x="0" />
<glyph horiz-adv-x="0" />
<glyph unicode=" "  horiz-adv-x="1187" />
<glyph unicode="&#x09;" horiz-adv-x="1187" />
<glyph unicode="&#xa0;" horiz-adv-x="1187" />
<glyph unicode="!" horiz-adv-x="480" d="M0 150v250l330 400v-250zM0 650v250l330 400v-250z" />
<glyph unicode="&#x22;" horiz-adv-x="660" d="M0 700v750h120v-510l255 510h135l-375 -750h-135z" />
<glyph unicode="#" horiz-adv-x="990" d="M0 400v200h360v-600h-120v400h-240zM0 850v200h240v400h120v-600h-360zM480 0v600h360v-200h-240v-400h-120zM480 850v600h120v-400h240v-200h-360z" />
<glyph unicode="$" horiz-adv-x="990" d="M0 1051v199h120v200h120v-200h120v200h120v-200h360v-200l-450 -1050h-150l450 1050h-210v-200h-120v200l-120 1v-201h-120v201h-120z" />
<glyph unicode="%" horiz-adv-x="1110" d="M0 1000q8 403 149 450h180q150 -50 151 -500v500h120v-465q14 10 29 15h180q150 -50 151 -500q0 -450 -150 -500h-180q-143 48 -149 501l-1 -1v-500h-120v465q-14 -10 -30 -15h-180q-150 50 -150 550zM120 1000q0 -350 90 -350h60q89 0 89 300t-90 300h-60 q-82 0 -89 -250zM180 850v200h120v-200h-120zM600 550q0 -350 90 -350h60q89 0 89 300t-90 300h-60q-82 0 -89 -250zM660 400v200h120v-200h-120z" />
<glyph unicode="&#x26;" horiz-adv-x="1110" d="M0 1450h135l225 -1145l225 1145h375v-200h-120v-1050h120v-200h-675zM476 200h244v1050h-26z" />
<glyph unicode="'" horiz-adv-x="390" d="M0 1450v200h240v-750h-120v550h-120z" />
<glyph unicode="(" horiz-adv-x="390" d="M0 0v1450h120v-625h120v-200h-120v-625h-120z" />
<glyph unicode=")" horiz-adv-x="390" d="M0 625v200h120v625h120v-1450h-120v625h-120z" />
<glyph unicode="*" horiz-adv-x="630" d="M0 950v200h95l-69 116l84 141l70 -115v158h120v-152l65 109l85 -141l-70 -116h100v-200h-95l65 -108l-85 -142l-65 109v-159h-120v165l-70 -115l-84 142l65 108h-91z" />
<glyph unicode="+" horiz-adv-x="810" d="M0 625v200h270v450h120v-450h270v-200h-270v-450h-120v450h-270z" />
<glyph unicode="," horiz-adv-x="270" d="M0 0v600h120v-600h-120z" />
<glyph unicode="-" horiz-adv-x="810" d="M0 625v200h660v-200h-660z" />
<glyph unicode="." horiz-adv-x="510" d="M0 0v600h120v-600h-120zM240 0v600h120l-1 -600h-119z" />
<glyph unicode="/" horiz-adv-x="390" d="M0 0v500l120 450v500h120v-500l-120 -450v-500h-120z" />
<glyph unicode="0" horiz-adv-x="1050" d="M0 500v450q0 450 150 500h600q150 -50 150 -500v-450q0 -450 -150 -500h-600q-150 50 -150 500zM120 500q0 -300 90 -300h480q90 0 90 300v450q0 300 -90 300h-480q-90 0 -90 -300v-450zM390 625v200h120v-200h-120z" />
<glyph unicode="1" horiz-adv-x="990" d="M0 0v200h360v1050h-360v200h480v-1250h360v-200h-840z" />
<glyph unicode="2" horiz-adv-x="990" d="M0 0v200h840v-200h-840zM0 450v200h630q89 0 89 300t-90 300h-420q-82 0 -89 -250h-120q8 403 149 450h540q150 -50 151 -500q0 -450 -150 -500h-690z" />
<glyph unicode="3" horiz-adv-x="990" d="M0 450h120q7 -250 89 -250h421q90 0 90 300v450q0 300 -90 300h-421q-82 0 -89 -250h-120q8 403 149 450h541q150 -50 150 -500v-450q0 -450 -150 -500h-541q-141 47 -149 450zM0 650v200h600v-200h-600z" />
<glyph unicode="4" horiz-adv-x="990" d="M0 650v800h120v-600h600v600h120v-1450h-120v650h-720z" />
<glyph unicode="5" horiz-adv-x="990" d="M0 450h120q7 -250 89 -250h420q90 0 90 300t-89 300h-630v200h690q150 -50 150 -500q-1 -450 -151 -500h-540q-141 47 -149 450zM0 1250v200h840v-200h-840z" />
<glyph unicode="6" horiz-adv-x="990" d="M0 450q0 500 150 550h540q150 -50 150 -500q-1 -450 -151 -500h-540q-141 47 -149 450zM0 1250v200h840v-200h-840zM120 450q7 -250 89 -250h420q90 0 90 300t-89 300h-420q-90 0 -90 -350z" />
<glyph unicode="7" horiz-adv-x="990" d="M0 1250v200h840v-1450h-120v1250h-720z" />
<glyph unicode="8" horiz-adv-x="1050" d="M0 425q0 202 44 303q-44 106 -44 322q0 375 150 400h600q150 -25 150 -400q0 -216 -44 -322q44 -101 44 -303q0 -400 -150 -425h-600q-150 25 -150 425zM120 425q0 -225 90 -225h480q90 0 90 225q0 200 -90 200h-480q-90 0 -90 -200zM120 1050q0 -225 90 -225h480 q90 0 90 225q0 200 -90 200h-480q-90 0 -90 -200z" />
<glyph unicode="9" horiz-adv-x="990" d="M0 0v200h840v-200h-840zM0 1000q8 403 149 450h540q150 -50 151 -500q0 -450 -150 -500h-540q-150 50 -150 550zM120 1000q0 -350 90 -350h420q89 0 89 300t-90 300h-420q-82 0 -89 -250z" />
<glyph unicode=":" horiz-adv-x="570" d="M0 0v200h270l-270 550h150l270 -550v-200h-420z" />
<glyph unicode=";" horiz-adv-x="270" d="M0 0v1450h120v-1450h-120z" />
<glyph unicode="&#x3c;" horiz-adv-x="810" d="M0 600v250l660 400v-200l-536 -325l536 -325v-200z" />
<glyph unicode="=" horiz-adv-x="810" d="M0 400v200h660v-200h-660zM0 850v200h660v-200h-660z" />
<glyph unicode="&#x3e;" horiz-adv-x="810" d="M0 200v200l536 325l-536 325v200l660 -400v-250z" />
<glyph unicode="?" horiz-adv-x="480" d="M0 1000v450h180q150 -50 150 -500v-450q0 -450 -150 -500h-60v200q90 0 90 300v450q0 300 -90 300v-250h-120z" />
<glyph unicode="@" horiz-adv-x="990" d="M0 500v450q0 450 150 500h690l-349 -625h-251v200h212l126 225h-368q-90 0 -90 -300v-450q0 -300 90 -300h368l-126 225h-212v200h251l349 -625h-690q-150 50 -150 500z" />
<glyph unicode="A" horiz-adv-x="1200" d="M0 0l349 625h701v-625h-120v425h-542l-238 -425h-150zM0 1450h150l238 -425h542v425h120v-625h-701z" />
<glyph unicode="B" horiz-adv-x="1250" d="M0 425h150l127 -225h496l127 225h150l-240 -425h-570zM0 1025l240 425h570l240 -425h-150l-127 225h-496l-127 -225h-150zM180 625v200h690v-200h-690z" />
<glyph unicode="C" horiz-adv-x="750" d="M0 0v950h120v-950h-120zM240 500v450h120v-450h-120zM480 500v950h120v-950h-120z" />
<glyph unicode="D" horiz-adv-x="990" d="M0 1250v200h840v-199l-690 -1l173 -425h397v-200h-315l255 -625h-150l-255 625z" />
<glyph unicode="E" horiz-adv-x="1110" d="M0 1250v200h375l225 -1145l225 1145h135l-285 -1450h-150l-259 1250h-26v-1250h-120v1250h-120z" />
<glyph unicode="F" horiz-adv-x="1110" d="M0 0v200h420v480q-262 107 -420 420v250q166 -341 420 -461v561h120v-603q86 -22 180 -22h240v-825h-960zM540 200h300v425h-120q-95 0 -180 18v-443z" />
<glyph unicode="G" horiz-adv-x="1280" d="M0 1450h841l-1 -200v-200h-120v200h-516l282 -1050h474v1250h120v-1450h-690z" />
<glyph unicode="H" horiz-adv-x="990" d="M0 0v200h840v-200h-840zM0 1250v200h840v-200h-840zM120 625v200h600v-200h-600z" />
<glyph unicode="I" horiz-adv-x="480" d="M0 0v1450h120l210 -300l-60 -150l-150 200v-1200h-120z" />
<glyph unicode="J" horiz-adv-x="1110" d="M0 1450h150q210 -625 660 -625h150v-200h-150q-290 0 -499 226l175 -651h474v-200h-570z" />
<glyph unicode="K" horiz-adv-x="1230" d="M0 500v450q0 450 150 500h781q141 -47 149 -450h-120q-7 250 -89 250h-661q-90 0 -90 -300v-450q0 -300 90 -300h661q82 0 89 250h120q-8 -403 -149 -450h-781q-150 50 -150 500z" />
<glyph unicode="L" horiz-adv-x="990" d="M0 0v1450h120v-1217l600 667l120 -100l-720 -800h-120z" />
<glyph unicode="M" horiz-adv-x="960" d="M0 0l1 200h605l-282 1050h-324v200h420l390 -1450h-810z" />
<glyph unicode="N" horiz-adv-x="1108" d="M0 0l285 1450h150l259 -1250h60q90 0 90 300v450q0 300 -90 300v200h60q150 -50 150 -500v-450q0 -450 -150 -500h-225l-229 1145l-225 -1145h-135z" />
<glyph unicode="O" horiz-adv-x="1320" d="M0 200l330 1250h510l330 -1250l-60 -200h-1050zM144 200h882l-282 1050h-318z" />
<glyph unicode="P" horiz-adv-x="990" d="M0 0v1450h120v-1250h510q90 0 90 300v450q0 300 -90 300v-250h-120v450h180q150 -50 150 -500v-450q0 -450 -150 -500h-690z" />
<glyph unicode="Q" horiz-adv-x="1110" d="M0 1000q8 403 149 450h660q150 -50 150 -500v-450q0 -450 -150 -500h-330v200h270q90 0 90 300v450q0 300 -90 300h-540q-82 0 -89 -250h-120z" />
<glyph unicode="R" horiz-adv-x="990" d="M0 1250v200h840v-199l-690 -1l510 -1250h-150z" />
<glyph unicode="S" horiz-adv-x="1110" d="M0 0v1450h120v-1324l630 1324h150l-690 -1450h-210zM390 150l510 450l60 -150l-510 -450z" />
<glyph unicode="T" horiz-adv-x="1110" d="M0 750h150l270 -484v1184h120v-1184l270 484h150l-420 -752h-120z" />
<glyph unicode="U" horiz-adv-x="1140" d="M0 250v1200h390l240 -425h-150l-127 225h-233v-900q0 -150 180 -150h390q180 0 180 150v1100h120v-1200q-30 -250 -300 -250h-390q-270 0 -300 250z" />
<glyph unicode="V" horiz-adv-x="1110" d="M0 1450h150l330 -591l330 591h150l-405 -725l-15 -27v-698h-120v698l-15 27z" />
<glyph unicode="W" horiz-adv-x="1260" d="M0 500v450q0 450 150 500h810q150 -50 150 -500v-450q0 -450 -150 -500h-810q-150 50 -150 500zM120 500q0 -300 90 -300h690q90 0 90 300v450q0 300 -90 300h-690q-90 0 -90 -300v-450z" />
<glyph unicode="X" horiz-adv-x="1050" d="M0 100l360 1350h180l360 -1350l-30 -100h-840zM174 200h552l-276 1027z" />
<glyph unicode="Y" horiz-adv-x="1110" d="M0 1450h150l330 -1227l276 1027h-150l-81 -300h-150l135 500h450l-390 -1450h-180z" />
<glyph unicode="Z" horiz-adv-x="1230" d="M0 0v1450h120v-200h570l300 -500h-150l-180 300h-540v-850h840v200h120v-400h-1080z" />
<glyph unicode="[" horiz-adv-x="390" d="M0 0v1450h120v-100h120v-200h-120v-850h120v-200h-120v-100h-120z" />
<glyph unicode="\" horiz-adv-x="390" d="M0 950v500h120v-500l120 -450v-500h-120v500z" />
<glyph unicode="]" horiz-adv-x="390" d="M0 100v200h120v850h-120v200h120v100h120v-1450h-120v100h-120z" />
<glyph unicode="^" horiz-adv-x="450" d="M0 1550l90 200h120l90 -200h-120l-30 75l-30 -75h-120z" />
<glyph unicode="_" horiz-adv-x="990" d="M0 -200h840v-200h-840v200z" />
<glyph unicode="`" horiz-adv-x="270" d="M0 1550v250q0 100 60 100h30v-100q-30 0 -30 -50h60v-200h-120z" />
<glyph unicode="a" horiz-adv-x="1200" d="M0 0v625h701l349 -625h-150l-238 425h-542v-425h-120zM0 825v625h120v-425h542l238 425h150l-349 -625h-701z" />
<glyph unicode="b" horiz-adv-x="1250" d="M0 425h150l127 -225h496l127 225h150l-240 -425h-570zM0 1025l240 425h570l240 -425h-150l-127 225h-496l-127 -225h-150zM180 625v200h690v-200h-690z" />
<glyph unicode="c" horiz-adv-x="750" d="M0 500v950h120v-950h-120zM240 500v450h120v-450h-120zM480 0v950h120v-950h-120z" />
<glyph unicode="d" horiz-adv-x="990" d="M0 1251v199h840v-200l-255 -625l-255 -625h-150l255 625h-315v200h397l173 425z" />
<glyph unicode="e" horiz-adv-x="1110" d="M0 1450h135l225 -1145l225 1145h375v-200h-120v-1250h-120v1250h-26l-259 -1250h-150z" />
<glyph unicode="f" horiz-adv-x="1110" d="M0 0v825h240q94 0 180 22v603h120v-561q254 120 420 461v-250q-158 -313 -420 -420v-480h420v-200h-960zM120 200h300v443q-85 -18 -180 -18h-120v-425z" />
<glyph unicode="g" horiz-adv-x="1280" d="M0 0v1450h120v-1250h474l282 1050h-516v-200h-120v200l-1 200h841l-390 -1450h-690z" />
<glyph unicode="h" horiz-adv-x="990" d="M0 0v200h840v-200h-840zM0 1250v200h840v-200h-840zM120 625v200h600v-200h-600z" />
<glyph unicode="i" horiz-adv-x="480" d="M0 1150l210 300h120v-1450h-120v1200l-150 -200z" />
<glyph unicode="j" horiz-adv-x="1110" d="M0 0v200h474l175 651q-209 -226 -499 -226h-150v200h150q450 0 660 625h150l-390 -1450h-570z" />
<glyph unicode="k" horiz-adv-x="1230" d="M0 450h120q7 -250 89 -250h661q90 0 90 300v450q0 300 -90 300h-661q-82 0 -89 -250h-120q8 403 149 450h781q150 -50 150 -500v-450q0 -450 -150 -500h-781q-141 47 -149 450z" />
<glyph unicode="l" horiz-adv-x="990" d="M0 800l120 100l600 -667v1217h120v-1450h-120z" />
<glyph unicode="m" horiz-adv-x="960" d="M0 0l390 1450h420v-200h-324l-282 -1050h605l1 -200h-810z" />
<glyph unicode="n" horiz-adv-x="1108" d="M0 500v450q0 450 150 500h60v-200q-90 0 -90 -300v-450q0 -300 90 -300h60l259 1250h150l285 -1450h-135l-225 1145l-229 -1145h-225q-150 50 -150 500z" />
<glyph unicode="o" horiz-adv-x="1320" d="M0 200l330 1250h510l330 -1250l-60 -200h-1050zM144 200h882l-282 1050h-318z" />
<glyph unicode="p" horiz-adv-x="990" d="M0 500v450q0 450 150 500h180v-450h-120v250q-90 0 -90 -300v-450q0 -300 90 -300h510v1250h120v-1450h-690q-150 50 -150 500z" />
<glyph unicode="q" horiz-adv-x="1110" d="M0 500v450q0 450 150 500h660q142 -47 149 -450h-120q-7 250 -89 250h-540q-90 0 -90 -300v-450q0 -300 90 -300h270v-200h-330q-150 50 -150 500z" />
<glyph unicode="r" horiz-adv-x="990" d="M0 1251v199h840v-200l-510 -1250h-150l510 1250z" />
<glyph unicode="s" horiz-adv-x="1110" d="M0 450l60 150l510 -450l-60 -150zM60 1450h150l630 -1324v1324h120v-1450h-210z" />
<glyph unicode="t" horiz-adv-x="1110" d="M0 750h150l270 -484v1184h120v-1184l270 484h150l-420 -752h-120z" />
<glyph unicode="u" horiz-adv-x="1140" d="M0 250v1200h120v-1100q0 -150 180 -150h390q180 0 180 150v900h-233l-127 -225h-150l240 425h390v-1200q-30 -250 -300 -250h-390q-270 0 -300 250z" />
<glyph unicode="v" horiz-adv-x="1110" d="M0 1450h150l330 -591l330 591h150l-405 -725l-15 -27v-698h-120v698l-15 27z" />
<glyph unicode="w" horiz-adv-x="1260" d="M0 500v450q0 450 150 500h810q150 -50 150 -500v-450q0 -450 -150 -500h-810q-150 50 -150 500zM120 500q0 -300 90 -300h690q90 0 90 300v450q0 300 -90 300h-690q-90 0 -90 -300v-450z" />
<glyph unicode="x" horiz-adv-x="1050" d="M0 100l360 1350h180l360 -1350l-30 -100h-840zM174 200h552l-276 1027z" />
<glyph unicode="y" horiz-adv-x="1110" d="M0 1450h450l135 -500h-150l-81 300h-150l276 -1027l330 1227h150l-390 -1450h-180z" />
<glyph unicode="z" horiz-adv-x="1230" d="M0 0v400h120v-200h840v850h-540l-180 -300h-150l300 500h570v200h120v-1450h-1080z" />
<glyph unicode="{" horiz-adv-x="1637" d="M0 744q0 248 178 463q82 99 194 169q-198 -231 -223 -385q-10 -64 -11 -154v-5q0 -154 113 -248q64 -52 136 -67q21 -4 39 -4q98 0 161.5 66.5t63.5 164.5q0 200 -58 304q-39 72 -128 161l93 93l139 -186v93l-93 139l140 139l140 -139l-94 -139v-93l140 186l92 -93 l-87 -88q-79 -87 -87 -181q-7 -89 -11 -196v-13q0 -90 51 -153q56 -71 153 -71q34 0 75 14q145 46 208 205q26 66 26 111v9q0 147 -66 281q-51 106 -168 249q158 -103 262 -272q109 -180 109 -360q0 -282 -231 -513t-512 -231t-512.5 231.5t-231.5 512.5z" />
<glyph unicode="|" d="M0 200v1100q0 200 200 200h1100q200 0 200 -200v-1100q0 -200 -200 -200h-1100q-200 0 -200 200zM25 200q1 -175 175 -175h1101q174 0 174 176v1099q0 175 -175 175h-1100q-174 0 -175 -175v-1100z" />
<glyph unicode="}" d="M0 750q0 311 219.5 530.5t530.5 219.5t530.5 -219.5t219.5 -530.5t-219.5 -530.5t-530.5 -219.5t-530.5 219.5t-219.5 530.5zM50 750q0 -168 68 -307l42 24q-21 41 -35 83l47 15q-27 87 -27 185t27 185l-47 15q14 42 35 83l-42 24q-68 -139 -68 -307zM169 357 q37 -53 86 -102q187 -187 445 -203v49q-47 3 -91 12l10 49q-169 34 -298 164q-11 10 -21 21l-38 -34q-28 32 -52 68zM169 1143l41 -24q24 36 52 68l38 -34q10 11 21 22q129 129 298 163l-10 49q44 9 91 12v49q-258 -16 -445 -203q-49 -49 -86 -102zM283 581q15 -41 38 -81 t51 -74l153 130q8 -9 17 -18q68 -68 158 -84l-36 -197q44 -7 90 -7t90 7l-36 197q90 16 158 84q9 9 17 18l153 -130q28 34 51 74t38 81l-188 67q17 48 17 102t-17 102l188 67q-15 41 -38 81t-51 74l-153 -130q-8 9 -17 18q-68 68 -158 84l36 197q-44 7 -90 7t-90 -7l36 -197 q-90 -16 -158 -84q-9 -9 -17 -18l-153 130q-28 -34 -51 -74t-38 -81l188 -67q-17 -48 -17 -102t17 -102zM800 52q258 16 445 203q49 49 86 102l-48 28q-26 -38 -55 -72l-38 34q-10 -11 -20 -21q-130 -130 -299 -164l10 -49q-39 -8 -81 -11v-50zM800 1398q42 -3 81 -11 l-10 -49q169 -34 299 -163l20 -22l38 34q29 -34 55 -72l48 28q-37 53 -86 102q-187 187 -445 203v-50zM1318 565l47 -15q-14 -40 -32 -78l49 -29q68 139 68 307t-68 307l-49 -29q18 -38 32 -78l-47 -15q27 -87 27 -185t-27 -185z" />
<glyph unicode="~" d="M0 200v1100q0 200 200 200h1100q200 0 200 -200v-1100q0 -200 -200 -200h-1100q-200 0 -200 200zM25 200q1 -175 175 -175h1101q174 0 174 176v1099q0 175 -175 175h-1100q-174 0 -175 -175v-1100z" />
<glyph unicode="&#xa1;" horiz-adv-x="480" d="M0 550v250l330 -400v-250zM0 1050v250l330 -400v-250z" />
<glyph unicode="&#xa2;" horiz-adv-x="990" d="M0 1051v199h120v200h120v-200h120v200h120v-200h360v-200l-450 -1050h-150l450 1050h-210v-200h-120v200l-120 1v-201h-120v201h-120z" />
<glyph unicode="&#xa3;" horiz-adv-x="990" d="M0 1051v199h120v200h120v-200h120v200h120v-200h360v-200l-450 -1050h-150l450 1050h-210v-200h-120v200l-120 1v-201h-120v201h-120z" />
<glyph unicode="&#xa4;" horiz-adv-x="990" d="M0 1051v199h120v200h120v-200h120v200h120v-200h360v-200l-450 -1050h-150l450 1050h-210v-200h-120v200l-120 1v-201h-120v201h-120z" />
<glyph unicode="&#xa5;" horiz-adv-x="990" d="M0 1051v199h120v200h120v-200h120v200h120v-200h360v-200l-450 -1050h-150l450 1050h-210v-200h-120v200l-120 1v-201h-120v201h-120z" />
<glyph unicode="&#xa6;" d="M0 200v1100q0 200 200 200h1100q200 0 200 -200v-1100q0 -200 -200 -200h-1100q-200 0 -200 200zM25 200q1 -175 175 -175h1101q174 0 174 176v1099q0 175 -175 175h-1100q-174 0 -175 -175v-1100z" />
<glyph unicode="&#xa7;" d="M0 200v1100q0 200 200 200h1100q200 0 200 -200v-1100q0 -200 -200 -200h-1100q-200 0 -200 200zM25 200q1 -175 175 -175h1101q174 0 174 176v1099q0 175 -175 175h-1100q-174 0 -175 -175v-1100z" />
<glyph unicode="&#xa8;" d="M0 200v1100q0 200 200 200h1100q200 0 200 -200v-1100q0 -200 -200 -200h-1100q-200 0 -200 200zM25 200q1 -175 175 -175h1101q174 0 174 176v1099q0 175 -175 175h-1100q-174 0 -175 -175v-1100z" />
<glyph unicode="&#xa9;" d="M0 200v1100q0 200 200 200h1100q200 0 200 -200v-1100q0 -200 -200 -200h-1100q-200 0 -200 200zM25 200q1 -175 175 -175h1101q174 0 174 176v1099q0 175 -175 175h-1100q-174 0 -175 -175v-1100z" />
<glyph unicode="&#xaa;" d="M0 200v1100q0 200 200 200h1100q200 0 200 -200v-1100q0 -200 -200 -200h-1100q-200 0 -200 200zM25 200q1 -175 175 -175h1101q174 0 174 176v1099q0 175 -175 175h-1100q-174 0 -175 -175v-1100z" />
<glyph unicode="&#xab;" d="M0 200v1100q0 200 200 200h1100q200 0 200 -200v-1100q0 -200 -200 -200h-1100q-200 0 -200 200zM25 200q1 -175 175 -175h1101q174 0 174 176v1099q0 175 -175 175h-1100q-174 0 -175 -175v-1100z" />
<glyph unicode="&#xac;" d="M0 200v1100q0 200 200 200h1100q200 0 200 -200v-1100q0 -200 -200 -200h-1100q-200 0 -200 200zM25 200q1 -175 175 -175h1101q174 0 174 176v1099q0 175 -175 175h-1100q-174 0 -175 -175v-1100z" />
<glyph unicode="&#xad;" horiz-adv-x="810" d="M0 625v200h660v-200h-660z" />
<glyph unicode="&#xae;" d="M0 200v1100q0 200 200 200h1100q200 0 200 -200v-1100q0 -200 -200 -200h-1100q-200 0 -200 200zM25 200q1 -175 175 -175h1101q174 0 174 176v1099q0 175 -175 175h-1100q-174 0 -175 -175v-1100z" />
<glyph unicode="&#xaf;" d="M0 200v1100q0 200 200 200h1100q200 0 200 -200v-1100q0 -200 -200 -200h-1100q-200 0 -200 200zM25 200q1 -175 175 -175h1101q174 0 174 176v1099q0 175 -175 175h-1100q-174 0 -175 -175v-1100z" />
<glyph unicode="&#xb0;" d="M0 200v1100q0 200 200 200h1100q200 0 200 -200v-1100q0 -200 -200 -200h-1100q-200 0 -200 200zM25 200q1 -175 175 -175h1101q174 0 174 176v1099q0 175 -175 175h-1100q-174 0 -175 -175v-1100z" />
<glyph unicode="&#xb1;" d="M0 200v1100q0 200 200 200h1100q200 0 200 -200v-1100q0 -200 -200 -200h-1100q-200 0 -200 200zM25 200q1 -175 175 -175h1101q174 0 174 176v1099q0 175 -175 175h-1100q-174 0 -175 -175v-1100z" />
<glyph unicode="&#xb2;" d="M0 200v1100q0 200 200 200h1100q200 0 200 -200v-1100q0 -200 -200 -200h-1100q-200 0 -200 200zM25 200q1 -175 175 -175h1101q174 0 174 176v1099q0 175 -175 175h-1100q-174 0 -175 -175v-1100z" />
<glyph unicode="&#xb3;" d="M0 200v1100q0 200 200 200h1100q200 0 200 -200v-1100q0 -200 -200 -200h-1100q-200 0 -200 200zM25 200q1 -175 175 -175h1101q174 0 174 176v1099q0 175 -175 175h-1100q-174 0 -175 -175v-1100z" />
<glyph unicode="&#xb4;" d="M0 200v1100q0 200 200 200h1100q200 0 200 -200v-1100q0 -200 -200 -200h-1100q-200 0 -200 200zM25 200q1 -175 175 -175h1101q174 0 174 176v1099q0 175 -175 175h-1100q-174 0 -175 -175v-1100z" />
<glyph unicode="&#xb5;" d="M0 200v1100q0 200 200 200h1100q200 0 200 -200v-1100q0 -200 -200 -200h-1100q-200 0 -200 200zM25 200q1 -175 175 -175h1101q174 0 174 176v1099q0 175 -175 175h-1100q-174 0 -175 -175v-1100z" />
<glyph unicode="&#xb6;" d="M0 200v1100q0 200 200 200h1100q200 0 200 -200v-1100q0 -200 -200 -200h-1100q-200 0 -200 200zM25 200q1 -175 175 -175h1101q174 0 174 176v1099q0 175 -175 175h-1100q-174 0 -175 -175v-1100z" />
<glyph unicode="&#xb7;" d="M0 200v1100q0 200 200 200h1100q200 0 200 -200v-1100q0 -200 -200 -200h-1100q-200 0 -200 200zM25 200q1 -175 175 -175h1101q174 0 174 176v1099q0 175 -175 175h-1100q-174 0 -175 -175v-1100z" />
<glyph unicode="&#xb8;" d="M0 200v1100q0 200 200 200h1100q200 0 200 -200v-1100q0 -200 -200 -200h-1100q-200 0 -200 200zM25 200q1 -175 175 -175h1101q174 0 174 176v1099q0 175 -175 175h-1100q-174 0 -175 -175v-1100z" />
<glyph unicode="&#xb9;" d="M0 200v1100q0 200 200 200h1100q200 0 200 -200v-1100q0 -200 -200 -200h-1100q-200 0 -200 200zM25 200q1 -175 175 -175h1101q174 0 174 176v1099q0 175 -175 175h-1100q-174 0 -175 -175v-1100z" />
<glyph unicode="&#xba;" d="M0 200v1100q0 200 200 200h1100q200 0 200 -200v-1100q0 -200 -200 -200h-1100q-200 0 -200 200zM25 200q1 -175 175 -175h1101q174 0 174 176v1099q0 175 -175 175h-1100q-174 0 -175 -175v-1100z" />
<glyph unicode="&#xbb;" d="M0 200v1100q0 200 200 200h1100q200 0 200 -200v-1100q0 -200 -200 -200h-1100q-200 0 -200 200zM25 200q1 -175 175 -175h1101q174 0 174 176v1099q0 175 -175 175h-1100q-174 0 -175 -175v-1100z" />
<glyph unicode="&#xbc;" d="M0 200v1100q0 200 200 200h1100q200 0 200 -200v-1100q0 -200 -200 -200h-1100q-200 0 -200 200zM25 200q1 -175 175 -175h1101q174 0 174 176v1099q0 175 -175 175h-1100q-174 0 -175 -175v-1100z" />
<glyph unicode="&#xbd;" d="M0 200v1100q0 200 200 200h1100q200 0 200 -200v-1100q0 -200 -200 -200h-1100q-200 0 -200 200zM25 200q1 -175 175 -175h1101q174 0 174 176v1099q0 175 -175 175h-1100q-174 0 -175 -175v-1100z" />
<glyph unicode="&#xbe;" d="M0 200v1100q0 200 200 200h1100q200 0 200 -200v-1100q0 -200 -200 -200h-1100q-200 0 -200 200zM25 200q1 -175 175 -175h1101q174 0 174 176v1099q0 175 -175 175h-1100q-174 0 -175 -175v-1100z" />
<glyph unicode="&#xbf;" horiz-adv-x="480" d="M0 500v450q0 450 150 500h180v-450h-120v250q-90 0 -90 -300v-450q0 -300 90 -300v-200h-60q-150 50 -150 500z" />
<glyph unicode="&#xc0;" d="M0 200v1100q0 200 200 200h1100q200 0 200 -200v-1100q0 -200 -200 -200h-1100q-200 0 -200 200zM25 200q1 -175 175 -175h1101q174 0 174 176v1099q0 175 -175 175h-1100q-174 0 -175 -175v-1100z" />
<glyph unicode="&#xc1;" d="M0 200v1100q0 200 200 200h1100q200 0 200 -200v-1100q0 -200 -200 -200h-1100q-200 0 -200 200zM25 200q1 -175 175 -175h1101q174 0 174 176v1099q0 175 -175 175h-1100q-174 0 -175 -175v-1100z" />
<glyph unicode="&#xc2;" d="M0 200v1100q0 200 200 200h1100q200 0 200 -200v-1100q0 -200 -200 -200h-1100q-200 0 -200 200zM25 200q1 -175 175 -175h1101q174 0 174 176v1099q0 175 -175 175h-1100q-174 0 -175 -175v-1100z" />
<glyph unicode="&#xc3;" d="M0 200v1100q0 200 200 200h1100q200 0 200 -200v-1100q0 -200 -200 -200h-1100q-200 0 -200 200zM25 200q1 -175 175 -175h1101q174 0 174 176v1099q0 175 -175 175h-1100q-174 0 -175 -175v-1100z" />
<glyph unicode="&#xc4;" d="M0 200v1100q0 200 200 200h1100q200 0 200 -200v-1100q0 -200 -200 -200h-1100q-200 0 -200 200zM25 200q1 -175 175 -175h1101q174 0 174 176v1099q0 175 -175 175h-1100q-174 0 -175 -175v-1100z" />
<glyph unicode="&#xc5;" horiz-adv-x="1230" d="M0 500v450q0 450 150 500h780q150 -50 150 -500v-125h-120v125q0 300 -90 300h-660q-90 0 -90 -300v-125h600v-200h-600v-125q0 -300 90 -300h660q90 0 90 300v125h120v-125q0 -450 -150 -500h-780q-150 50 -150 500z" />
<glyph unicode="&#xc6;" horiz-adv-x="1230" d="M0 500v450q0 450 150 500h780q150 -50 150 -500v-125h-120v125q0 300 -90 300h-660q-90 0 -90 -300v-125h600v-200h-600v-125q0 -300 90 -300h660q90 0 90 300v125h120v-125q0 -450 -150 -500h-780q-150 50 -150 500z" />
<glyph unicode="&#xc7;" horiz-adv-x="1370" d="M0 0l390 1450h780v-200h-684l-282 -1050h965l1 -200h-1170z" />
<glyph unicode="&#xc8;" d="M0 200v1100q0 200 200 200h1100q200 0 200 -200v-1100q0 -200 -200 -200h-1100q-200 0 -200 200zM25 200q1 -175 175 -175h1101q174 0 174 176v1099q0 175 -175 175h-1100q-174 0 -175 -175v-1100z" />
<glyph unicode="&#xc9;" d="M0 200v1100q0 200 200 200h1100q200 0 200 -200v-1100q0 -200 -200 -200h-1100q-200 0 -200 200zM25 200q1 -175 175 -175h1101q174 0 174 176v1099q0 175 -175 175h-1100q-174 0 -175 -175v-1100z" />
<glyph unicode="&#xca;" d="M0 200v1100q0 200 200 200h1100q200 0 200 -200v-1100q0 -200 -200 -200h-1100q-200 0 -200 200zM25 200q1 -175 175 -175h1101q174 0 174 176v1099q0 175 -175 175h-1100q-174 0 -175 -175v-1100z" />
<glyph unicode="&#xcb;" horiz-adv-x="1230" d="M0 500v200q300 0 300 500v250h480v-250q1 -500 300 -500l-1 -200h-59q-359 50 -360 700v50h-240v-50q0 -650 -360 -700h-60zM60 0v250h960v-250h-960z" />
<glyph unicode="&#xcc;" d="M0 200v1100q0 200 200 200h1100q200 0 200 -200v-1100q0 -200 -200 -200h-1100q-200 0 -200 200zM25 200q1 -175 175 -175h1101q174 0 174 176v1099q0 175 -175 175h-1100q-174 0 -175 -175v-1100z" />
<glyph unicode="&#xcd;" d="M0 200v1100q0 200 200 200h1100q200 0 200 -200v-1100q0 -200 -200 -200h-1100q-200 0 -200 200zM25 200q1 -175 175 -175h1101q174 0 174 176v1099q0 175 -175 175h-1100q-174 0 -175 -175v-1100z" />
<glyph unicode="&#xce;" d="M0 200v1100q0 200 200 200h1100q200 0 200 -200v-1100q0 -200 -200 -200h-1100q-200 0 -200 200zM25 200q1 -175 175 -175h1101q174 0 174 176v1099q0 175 -175 175h-1100q-174 0 -175 -175v-1100z" />
<glyph unicode="&#xcf;" d="M0 200v1100q0 200 200 200h1100q200 0 200 -200v-1100q0 -200 -200 -200h-1100q-200 0 -200 200zM25 200q1 -175 175 -175h1101q174 0 174 176v1099q0 175 -175 175h-1100q-174 0 -175 -175v-1100z" />
<glyph unicode="&#xd0;" horiz-adv-x="1310" d="M0 500v450q0 450 150 500h810q150 -50 150 -500v-450q0 -450 -150 -500h-810q-150 50 -150 500zM120 500q0 -300 90 -300h690q90 0 90 300v125h-510v200h510v125q0 300 -90 300h-690q-90 0 -90 -300v-450z" />
<glyph unicode="&#xd1;" horiz-adv-x="990" d="M0 0v1450h720v-200h-240l360 -1250h-135l-360 1250h-225v-1250h-120z" />
<glyph unicode="&#xd2;" d="M0 200v1100q0 200 200 200h1100q200 0 200 -200v-1100q0 -200 -200 -200h-1100q-200 0 -200 200zM25 200q1 -175 175 -175h1101q174 0 174 176v1099q0 175 -175 175h-1100q-174 0 -175 -175v-1100z" />
<glyph unicode="&#xd3;" d="M0 200v1100q0 200 200 200h1100q200 0 200 -200v-1100q0 -200 -200 -200h-1100q-200 0 -200 200zM25 200q1 -175 175 -175h1101q174 0 174 176v1099q0 175 -175 175h-1100q-174 0 -175 -175v-1100z" />
<glyph unicode="&#xd4;" d="M0 200v1100q0 200 200 200h1100q200 0 200 -200v-1100q0 -200 -200 -200h-1100q-200 0 -200 200zM25 200q1 -175 175 -175h1101q174 0 174 176v1099q0 175 -175 175h-1100q-174 0 -175 -175v-1100z" />
<glyph unicode="&#xd5;" d="M0 200v1100q0 200 200 200h1100q200 0 200 -200v-1100q0 -200 -200 -200h-1100q-200 0 -200 200zM25 200q1 -175 175 -175h1101q174 0 174 176v1099q0 175 -175 175h-1100q-174 0 -175 -175v-1100z" />
<glyph unicode="&#xd6;" d="M0 200v1100q0 200 200 200h1100q200 0 200 -200v-1100q0 -200 -200 -200h-1100q-200 0 -200 200zM25 200q1 -175 175 -175h1101q174 0 174 176v1099q0 175 -175 175h-1100q-174 0 -175 -175v-1100z" />
<glyph unicode="&#xd7;" d="M0 200v1100q0 200 200 200h1100q200 0 200 -200v-1100q0 -200 -200 -200h-1100q-200 0 -200 200zM25 200q1 -175 175 -175h1101q174 0 174 176v1099q0 175 -175 175h-1100q-174 0 -175 -175v-1100z" />
<glyph unicode="&#xd8;" horiz-adv-x="1050" d="M0 500v450q0 450 150 500h240v-200h-180q-90 0 -90 -300v-450q0 -300 90 -300h180v-200h-240q-150 50 -150 500zM510 0v200h180q90 0 90 300v450q0 300 -90 300h-180v200h240q150 -50 150 -500v-450q0 -450 -150 -500h-240z" />
<glyph unicode="&#xd9;" d="M0 200v1100q0 200 200 200h1100q200 0 200 -200v-1100q0 -200 -200 -200h-1100q-200 0 -200 200zM25 200q1 -175 175 -175h1101q174 0 174 176v1099q0 175 -175 175h-1100q-174 0 -175 -175v-1100z" />
<glyph unicode="&#xda;" d="M0 200v1100q0 200 200 200h1100q200 0 200 -200v-1100q0 -200 -200 -200h-1100q-200 0 -200 200zM25 200q1 -175 175 -175h1101q174 0 174 176v1099q0 175 -175 175h-1100q-174 0 -175 -175v-1100z" />
<glyph unicode="&#xdb;" d="M0 200v1100q0 200 200 200h1100q200 0 200 -200v-1100q0 -200 -200 -200h-1100q-200 0 -200 200zM25 200q1 -175 175 -175h1101q174 0 174 176v1099q0 175 -175 175h-1100q-174 0 -175 -175v-1100z" />
<glyph unicode="&#xdc;" d="M0 200v1100q0 200 200 200h1100q200 0 200 -200v-1100q0 -200 -200 -200h-1100q-200 0 -200 200zM25 200q1 -175 175 -175h1101q174 0 174 176v1099q0 175 -175 175h-1100q-174 0 -175 -175v-1100z" />
<glyph unicode="&#xdd;" d="M0 200v1100q0 200 200 200h1100q200 0 200 -200v-1100q0 -200 -200 -200h-1100q-200 0 -200 200zM25 200q1 -175 175 -175h1101q174 0 174 176v1099q0 175 -175 175h-1100q-174 0 -175 -175v-1100z" />
<glyph unicode="&#xde;" horiz-adv-x="1080" d="M0 0v1450h120v-625h345l465 -825h-150l-349 625h-311v-625h-120z" />
<glyph unicode="&#xdf;" horiz-adv-x="1430" d="M0 0v400h120v-400h-120zM0 1050v400h120v-400h-120zM240 0v400h120v-200h384l282 1050h-666v-200h-120v400h990l-390 -1450h-600z" />
<glyph unicode="&#xe0;" d="M0 200v1100q0 200 200 200h1100q200 0 200 -200v-1100q0 -200 -200 -200h-1100q-200 0 -200 200zM25 200q1 -175 175 -175h1101q174 0 174 176v1099q0 175 -175 175h-1100q-174 0 -175 -175v-1100z" />
<glyph unicode="&#xe1;" d="M0 200v1100q0 200 200 200h1100q200 0 200 -200v-1100q0 -200 -200 -200h-1100q-200 0 -200 200zM25 200q1 -175 175 -175h1101q174 0 174 176v1099q0 175 -175 175h-1100q-174 0 -175 -175v-1100z" />
<glyph unicode="&#xe2;" d="M0 200v1100q0 200 200 200h1100q200 0 200 -200v-1100q0 -200 -200 -200h-1100q-200 0 -200 200zM25 200q1 -175 175 -175h1101q174 0 174 176v1099q0 175 -175 175h-1100q-174 0 -175 -175v-1100z" />
<glyph unicode="&#xe3;" d="M0 200v1100q0 200 200 200h1100q200 0 200 -200v-1100q0 -200 -200 -200h-1100q-200 0 -200 200zM25 200q1 -175 175 -175h1101q174 0 174 176v1099q0 175 -175 175h-1100q-174 0 -175 -175v-1100z" />
<glyph unicode="&#xe4;" d="M0 200v1100q0 200 200 200h1100q200 0 200 -200v-1100q0 -200 -200 -200h-1100q-200 0 -200 200zM25 200q1 -175 175 -175h1101q174 0 174 176v1099q0 175 -175 175h-1100q-174 0 -175 -175v-1100z" />
<glyph unicode="&#xe5;" horiz-adv-x="1230" d="M0 500v125h120v-125q0 -300 90 -300h660q90 0 90 300v125h-600v200h600v125q0 300 -90 300h-660q-90 0 -90 -300v-125h-120v125q0 450 150 500h780q150 -50 150 -500v-450q0 -450 -150 -500h-780q-150 50 -150 500z" />
<glyph unicode="&#xe6;" horiz-adv-x="1230" d="M0 500v125h120v-125q0 -300 90 -300h660q90 0 90 300v125h-600v200h600v125q0 300 -90 300h-660q-90 0 -90 -300v-125h-120v125q0 450 150 500h780q150 -50 150 -500v-450q0 -450 -150 -500h-780q-150 50 -150 500z" />
<glyph unicode="&#xe7;" horiz-adv-x="1370" d="M0 0l1 200h965l-282 1050h-684v200h780l390 -1450h-1170z" />
<glyph unicode="&#xe8;" d="M0 200v1100q0 200 200 200h1100q200 0 200 -200v-1100q0 -200 -200 -200h-1100q-200 0 -200 200zM25 200q1 -175 175 -175h1101q174 0 174 176v1099q0 175 -175 175h-1100q-174 0 -175 -175v-1100z" />
<glyph unicode="&#xe9;" d="M0 200v1100q0 200 200 200h1100q200 0 200 -200v-1100q0 -200 -200 -200h-1100q-200 0 -200 200zM25 200q1 -175 175 -175h1101q174 0 174 176v1099q0 175 -175 175h-1100q-174 0 -175 -175v-1100z" />
<glyph unicode="&#xea;" d="M0 200v1100q0 200 200 200h1100q200 0 200 -200v-1100q0 -200 -200 -200h-1100q-200 0 -200 200zM25 200q1 -175 175 -175h1101q174 0 174 176v1099q0 175 -175 175h-1100q-174 0 -175 -175v-1100z" />
<glyph unicode="&#xeb;" horiz-adv-x="1230" d="M0 700q299 0 300 500v250h480v-250q0 -500 300 -500v-200h-60q-360 50 -360 700v50h-240v-50q-1 -650 -360 -700h-59zM60 0v250h960v-250h-960z" />
<glyph unicode="&#xec;" d="M0 200v1100q0 200 200 200h1100q200 0 200 -200v-1100q0 -200 -200 -200h-1100q-200 0 -200 200zM25 200q1 -175 175 -175h1101q174 0 174 176v1099q0 175 -175 175h-1100q-174 0 -175 -175v-1100z" />
<glyph unicode="&#xed;" d="M0 200v1100q0 200 200 200h1100q200 0 200 -200v-1100q0 -200 -200 -200h-1100q-200 0 -200 200zM25 200q1 -175 175 -175h1101q174 0 174 176v1099q0 175 -175 175h-1100q-174 0 -175 -175v-1100z" />
<glyph unicode="&#xee;" d="M0 200v1100q0 200 200 200h1100q200 0 200 -200v-1100q0 -200 -200 -200h-1100q-200 0 -200 200zM25 200q1 -175 175 -175h1101q174 0 174 176v1099q0 175 -175 175h-1100q-174 0 -175 -175v-1100z" />
<glyph unicode="&#xef;" d="M0 200v1100q0 200 200 200h1100q200 0 200 -200v-1100q0 -200 -200 -200h-1100q-200 0 -200 200zM25 200q1 -175 175 -175h1101q174 0 174 176v1099q0 175 -175 175h-1100q-174 0 -175 -175v-1100z" />
<glyph unicode="&#xf0;" horiz-adv-x="1310" d="M0 500v450q0 450 150 500h810q150 -50 150 -500v-450q0 -450 -150 -500h-810q-150 50 -150 500zM120 500q0 -300 90 -300h690q90 0 90 300v450q0 300 -90 300h-690q-90 0 -90 -300v-125h510v-200h-510v-125z" />
<glyph unicode="&#xf1;" horiz-adv-x="990" d="M0 0l360 1250h-240v200h720v-1450h-120v1250h-225l-360 -1250h-135z" />
<glyph unicode="&#xf2;" d="M0 200v1100q0 200 200 200h1100q200 0 200 -200v-1100q0 -200 -200 -200h-1100q-200 0 -200 200zM25 200q1 -175 175 -175h1101q174 0 174 176v1099q0 175 -175 175h-1100q-174 0 -175 -175v-1100z" />
<glyph unicode="&#xf3;" d="M0 200v1100q0 200 200 200h1100q200 0 200 -200v-1100q0 -200 -200 -200h-1100q-200 0 -200 200zM25 200q1 -175 175 -175h1101q174 0 174 176v1099q0 175 -175 175h-1100q-174 0 -175 -175v-1100z" />
<glyph unicode="&#xf4;" d="M0 200v1100q0 200 200 200h1100q200 0 200 -200v-1100q0 -200 -200 -200h-1100q-200 0 -200 200zM25 200q1 -175 175 -175h1101q174 0 174 176v1099q0 175 -175 175h-1100q-174 0 -175 -175v-1100z" />
<glyph unicode="&#xf5;" d="M0 200v1100q0 200 200 200h1100q200 0 200 -200v-1100q0 -200 -200 -200h-1100q-200 0 -200 200zM25 200q1 -175 175 -175h1101q174 0 174 176v1099q0 175 -175 175h-1100q-174 0 -175 -175v-1100z" />
<glyph unicode="&#xf6;" d="M0 200v1100q0 200 200 200h1100q200 0 200 -200v-1100q0 -200 -200 -200h-1100q-200 0 -200 200zM25 200q1 -175 175 -175h1101q174 0 174 176v1099q0 175 -175 175h-1100q-174 0 -175 -175v-1100z" />
<glyph unicode="&#xf7;" d="M0 200v1100q0 200 200 200h1100q200 0 200 -200v-1100q0 -200 -200 -200h-1100q-200 0 -200 200zM25 200q1 -175 175 -175h1101q174 0 174 176v1099q0 175 -175 175h-1100q-174 0 -175 -175v-1100z" />
<glyph unicode="&#xf8;" horiz-adv-x="1050" d="M0 500v450q0 450 150 500h240v-200h-180q-90 0 -90 -300v-450q0 -300 90 -300h180v-200h-240q-150 50 -150 500zM510 0v200h180q90 0 90 300v450q0 300 -90 300h-180v200h240q150 -50 150 -500v-450q0 -450 -150 -500h-240z" />
<glyph unicode="&#xf9;" d="M0 200v1100q0 200 200 200h1100q200 0 200 -200v-1100q0 -200 -200 -200h-1100q-200 0 -200 200zM25 200q1 -175 175 -175h1101q174 0 174 176v1099q0 175 -175 175h-1100q-174 0 -175 -175v-1100z" />
<glyph unicode="&#xfa;" d="M0 200v1100q0 200 200 200h1100q200 0 200 -200v-1100q0 -200 -200 -200h-1100q-200 0 -200 200zM25 200q1 -175 175 -175h1101q174 0 174 176v1099q0 175 -175 175h-1100q-174 0 -175 -175v-1100z" />
<glyph unicode="&#xfb;" d="M0 200v1100q0 200 200 200h1100q200 0 200 -200v-1100q0 -200 -200 -200h-1100q-200 0 -200 200zM25 200q1 -175 175 -175h1101q174 0 174 176v1099q0 175 -175 175h-1100q-174 0 -175 -175v-1100z" />
<glyph unicode="&#xfc;" d="M0 200v1100q0 200 200 200h1100q200 0 200 -200v-1100q0 -200 -200 -200h-1100q-200 0 -200 200zM25 200q1 -175 175 -175h1101q174 0 174 176v1099q0 175 -175 175h-1100q-174 0 -175 -175v-1100z" />
<glyph unicode="&#xfd;" d="M0 200v1100q0 200 200 200h1100q200 0 200 -200v-1100q0 -200 -200 -200h-1100q-200 0 -200 200zM25 200q1 -175 175 -175h1101q174 0 174 176v1099q0 175 -175 175h-1100q-174 0 -175 -175v-1100z" />
<glyph unicode="&#xfe;" horiz-adv-x="1080" d="M0 0l465 825h345v625h120v-1450h-120v625h-311l-349 -625h-150z" />
<glyph unicode="&#xff;" d="M0 200v1100q0 200 200 200h1100q200 0 200 -200v-1100q0 -200 -200 -200h-1100q-200 0 -200 200zM25 200q1 -175 175 -175h1101q174 0 174 176v1099q0 175 -175 175h-1100q-174 0 -175 -175v-1100z" />
<glyph unicode="&#x2c6;" d="M0 200v1100q0 200 200 200h1100q200 0 200 -200v-1100q0 -200 -200 -200h-1100q-200 0 -200 200zM25 200q1 -175 175 -175h1101q174 0 174 176v1099q0 175 -175 175h-1100q-174 0 -175 -175v-1100z" />
<glyph unicode="&#x2dc;" d="M0 200v1100q0 200 200 200h1100q200 0 200 -200v-1100q0 -200 -200 -200h-1100q-200 0 -200 200zM25 200q1 -175 175 -175h1101q174 0 174 176v1099q0 175 -175 175h-1100q-174 0 -175 -175v-1100z" />
<glyph unicode="&#x2000;" horiz-adv-x="950" />
<glyph unicode="&#x2001;" horiz-adv-x="1900" />
<glyph unicode="&#x2002;" horiz-adv-x="950" />
<glyph unicode="&#x2003;" horiz-adv-x="1900" />
<glyph unicode="&#x2004;" horiz-adv-x="633" />
<glyph unicode="&#x2005;" horiz-adv-x="475" />
<glyph unicode="&#x2006;" horiz-adv-x="316" />
<glyph unicode="&#x2007;" horiz-adv-x="316" />
<glyph unicode="&#x2008;" horiz-adv-x="237" />
<glyph unicode="&#x2009;" horiz-adv-x="380" />
<glyph unicode="&#x200a;" horiz-adv-x="105" />
<glyph unicode="&#x2010;" horiz-adv-x="810" d="M0 625v200h660v-200h-660z" />
<glyph unicode="&#x2011;" horiz-adv-x="810" d="M0 625v200h660v-200h-660z" />
<glyph unicode="&#x2012;" horiz-adv-x="810" d="M0 625v200h660v-200h-660z" />
<glyph unicode="&#x2013;" horiz-adv-x="810" d="M0 625v200h660v-200h-660z" />
<glyph unicode="&#x2014;" horiz-adv-x="810" d="M0 625v200h660v-200h-660z" />
<glyph unicode="&#x2018;" horiz-adv-x="390" d="M0 900v750h240v-200h-120v-550h-120z" />
<glyph unicode="&#x2019;" horiz-adv-x="390" d="M0 1450v200h240v-750h-120v550h-120z" />
<glyph unicode="&#x201a;" d="M0 200v1100q0 200 200 200h1100q200 0 200 -200v-1100q0 -200 -200 -200h-1100q-200 0 -200 200zM25 200q1 -175 175 -175h1101q174 0 174 176v1099q0 175 -175 175h-1100q-174 0 -175 -175v-1100z" />
<glyph unicode="&#x201c;" horiz-adv-x="660" d="M0 1450h135l255 -510v510h120v-750h-135z" />
<glyph unicode="&#x201d;" horiz-adv-x="660" d="M0 700v750h120v-510l255 510h135l-375 -750h-135z" />
<glyph unicode="&#x201e;" d="M0 200v1100q0 200 200 200h1100q200 0 200 -200v-1100q0 -200 -200 -200h-1100q-200 0 -200 200zM25 200q1 -175 175 -175h1101q174 0 174 176v1099q0 175 -175 175h-1100q-174 0 -175 -175v-1100z" />
<glyph unicode="&#x2022;" d="M0 200v1100q0 200 200 200h1100q200 0 200 -200v-1100q0 -200 -200 -200h-1100q-200 0 -200 200zM25 200q1 -175 175 -175h1101q174 0 174 176v1099q0 175 -175 175h-1100q-174 0 -175 -175v-1100z" />
<glyph unicode="&#x2026;" d="M0 200v1100q0 200 200 200h1100q200 0 200 -200v-1100q0 -200 -200 -200h-1100q-200 0 -200 200zM25 200q1 -175 175 -175h1101q174 0 174 176v1099q0 175 -175 175h-1100q-174 0 -175 -175v-1100z" />
<glyph unicode="&#x202f;" horiz-adv-x="380" />
<glyph unicode="&#x2039;" d="M0 200v1100q0 200 200 200h1100q200 0 200 -200v-1100q0 -200 -200 -200h-1100q-200 0 -200 200zM25 200q1 -175 175 -175h1101q174 0 174 176v1099q0 175 -175 175h-1100q-174 0 -175 -175v-1100z" />
<glyph unicode="&#x203a;" d="M0 200v1100q0 200 200 200h1100q200 0 200 -200v-1100q0 -200 -200 -200h-1100q-200 0 -200 200zM25 200q1 -175 175 -175h1101q174 0 174 176v1099q0 175 -175 175h-1100q-174 0 -175 -175v-1100z" />
<glyph unicode="&#x205f;" horiz-adv-x="475" />
<glyph unicode="&#x20ac;" horiz-adv-x="990" d="M0 1051v199h120v200h120v-200h120v200h120v-200h360v-200l-450 -1050h-150l450 1050h-210v-200h-120v200l-120 1v-201h-120v201h-120z" />
<glyph unicode="&#x2122;" d="M0 200v1100q0 200 200 200h1100q200 0 200 -200v-1100q0 -200 -200 -200h-1100q-200 0 -200 200zM25 200q1 -175 175 -175h1101q174 0 174 176v1099q0 175 -175 175h-1100q-174 0 -175 -175v-1100z" />
<glyph unicode="&#x25fc;" horiz-adv-x="1450" d="M0 0v1450h1450v-1450h-1450z" />
</font>
</defs>
</svg>
